<svg width="100" height="101" viewBox="0 0 100 101" fill="none" xmlns="http://www.w3.org/2000/svg">
<path d="M9.68119 54.3133C15.594 65.9523 22.1796 77.8598 22.7878 78.0222C23.1775 78.121 30.2287 78.2355 38.4213 78.1579L53.3523 78.0746L61.4383 64.3771L69.5069 50.6017L66.6961 45.3416C65.1825 42.4106 63.637 40.0676 63.3119 40.0749C62.9099 40.1036 59.5383 45.298 54.6598 53.433L46.6877 66.7267L38.2468 66.7904C33.6479 66.865 29.6173 66.7409 29.3342 66.5712C29.0983 66.4297 27.0432 62.9043 24.8016 58.7274L20.7407 51.1665L28.6831 37.9224C33.0558 30.6307 36.6029 24.395 36.5035 24.133C36.4286 23.616 29.8688 23.324 26.1437 23.6529L24.3048 23.8315L16.1541 37.4229L8.00353 51.0142L9.68119 54.3133Z" fill="white"/>
<path d="M30.2755 52.3532L30.2747 52.3514L29.2133 50.1638L29.0943 49.9184L29.2362 49.6854L37.5406 36.0515L37.5415 36.05L45.8634 22.4939L46.0082 22.2581L46.2848 22.2555L61.1196 22.1157C61.1199 22.1157 61.1202 22.1157 61.1205 22.1157C65.1971 22.0626 68.9812 22.0701 71.7925 22.1094C73.1979 22.1291 74.3625 22.1568 75.1999 22.1889C75.618 22.205 75.9585 22.2223 76.208 22.2407C76.3323 22.2498 76.4392 22.2595 76.5243 22.2702C76.5842 22.2777 76.7012 22.2924 76.7964 22.3317L76.8309 22.3459L76.8629 22.3651C76.9376 22.4099 76.9909 22.4665 77.0135 22.491C77.044 22.5241 77.0735 22.5606 77.1007 22.596C77.1554 22.6675 77.2188 22.7588 77.2885 22.8642C77.4288 23.0764 77.611 23.371 77.8284 23.7352C78.2639 24.4651 78.8517 25.4932 79.5479 26.7422C80.9409 29.2414 82.774 32.6364 84.703 36.3245L91.6967 49.6907L91.8277 49.9411L91.6807 50.1826L83.3762 63.8165L83.3753 63.818L75.0237 77.4236L74.8798 77.6581L74.6047 77.662L68.7822 77.7448L68.7822 77.7448L68.7788 77.7448C67.1588 77.7569 65.6479 77.7172 64.5124 77.6501C63.9457 77.6166 63.4658 77.5759 63.1101 77.5303C62.9334 77.5077 62.7774 77.4826 62.6528 77.4542C62.5911 77.4402 62.5269 77.4231 62.4673 77.4014C62.4226 77.3851 62.32 77.3458 62.2303 77.2626L62.2064 77.2405L62.1856 77.2155C62.0764 77.0841 62.062 76.9404 62.0589 76.8821C62.0551 76.8109 62.0635 76.7462 62.0717 76.6991C62.0886 76.6029 62.1207 76.497 62.1572 76.3924C62.2319 76.1786 62.3529 75.894 62.5119 75.5501C62.8316 74.8586 63.3272 73.8808 63.9787 72.6537C65.2828 70.1974 67.225 66.7179 69.6693 62.4815L77.4173 49.036L73.8191 42.123C73.819 42.1229 73.819 42.1228 73.8189 42.1227C72.7885 40.1589 71.7894 38.3328 71.0058 36.9651C70.6136 36.2807 70.2774 35.7147 70.0194 35.3049C69.89 35.0995 69.7833 34.9381 69.7008 34.8224C69.6706 34.7801 69.647 34.7487 69.6293 34.726C69.6033 34.7211 69.5714 34.7157 69.5329 34.7099C69.393 34.689 69.1958 34.6677 68.9435 34.6468C68.4407 34.6052 67.7463 34.5676 66.9104 34.5365C65.2404 34.4745 63.0241 34.4392 60.6833 34.4482C60.6829 34.4482 60.6825 34.4482 60.6821 34.4482L52.323 34.5237L44.5544 47.4779C42.3816 51.1013 40.3435 54.4195 38.813 56.8376C38.0482 58.0461 37.408 59.0331 36.9403 59.7219C36.7071 60.0653 36.5127 60.3406 36.3652 60.5339C36.2924 60.6292 36.2242 60.7137 36.1642 60.7786C36.135 60.8102 36.0983 60.8476 36.057 60.8813C36.0364 60.8982 36.0061 60.9212 35.968 60.9429C35.9409 60.9584 35.8876 60.9864 35.815 61.0026C35.6315 61.0458 35.4744 60.9916 35.3846 60.9489C35.2857 60.9018 35.1996 60.8362 35.1297 60.7749C34.9884 60.6508 34.8379 60.4766 34.6835 60.2753C34.3708 59.8674 33.9835 59.2703 33.5415 58.5253C32.655 57.0309 31.5189 54.8905 30.2755 52.3532ZM69.7008 34.742C69.7028 34.7427 69.704 34.7431 69.7044 34.7432C69.705 34.7433 69.7039 34.7429 69.7008 34.742Z" stroke="white"/>
</svg>
